<svg width="143" height="50" viewBox="0 0 143 50" xmlns="http://www.w3.org/2000/svg" xmlns:xlink="http://www.w3.org/1999/xlink">
    <defs>
        <path id="wifkmq63ta" d="M0 0h16.968v16.723H0z"/>
        <path id="8vfbuw53gc" d="M0 0h16.613v16.723H0z"/>
        <path id="z75gy0iebe" d="M0 0h48.388v33H0z"/>
    </defs>
    <g fill="none" fill-rule="evenodd">
        <path d="M0 0h143v50H0z"/>
        <path d="M114.101 36.867c0 .852.549 1.199 1.388 1.199h1.006L116.018 41h-2.079c-2.419 0-3.354-1.324-3.354-3.155v-20.51h3.516v19.532zM92.747 36.867c0 .852.549 1.199 1.388 1.199h6.967c.55 0 1.582-.19 1.582-.978v-9.024c0-.695-.387-.852-1-.852h-8.937v9.655zm9.937-12.59c1.839 0 3.484 1.073 3.484 2.935v10.664c0 1.768-1.226 3.124-3.84 3.124h-9.741c-2.42 0-3.356-1.324-3.356-3.155v-20.51h3.516v6.942h9.937z" fill="#545045"/>
        <g transform="translate(119.032 24.277)">
            <mask id="dmm2uitf1b" fill="#fff">
                <use xlink:href="#wifkmq63ta"/>
            </mask>
            <path d="M3.485 7.843 12.71 6.41c.58-.126.742-.347.742-.757V3.534c0-.441-.064-.599-.58-.599H4.225c-.42 0-.741.064-.741.884v4.024zM16.33 13.79v2.934H2.771C.552 16.723 0 15.24 0 13.836V2.209C0 .884.84 0 2.323 0h12.16c1.68 0 2.485.663 2.485 2.114v5.147c0 .788-.548 1.42-1.515 1.609-2.937.568-7.13 1.038-10.033 1.575-1.549.283-1.935.44-1.935 1.286v.809c0 .756.323 1.25 1.148 1.25H16.33z" fill="#545045" mask="url(#dmm2uitf1b)"/>
        </g>
        <g transform="translate(68.575 24.277)">
            <mask id="bzfmg49mfd" fill="#fff">
                <use xlink:href="#8vfbuw53gc"/>
            </mask>
            <path d="M13.13 8.88 4.258 10.13c-.58.126-.741.348-.741.757v2.303c0 .442.064.6.58.6h8.29c.42 0 .743-.063.743-.883V8.88zM.74 2.935V0h13.84c1.614 0 2.032 1.136 2.032 2.272v12.243c0 1.325-.838 2.208-2.322 2.208H2.484C.807 16.723 0 16.061 0 14.61V9.277c0-.789.548-1.42 1.516-1.61 2.936-.567 6.775-.852 9.678-1.388 1.549-.284 1.936-.534 1.936-1.331V3.692c0-.41-.032-.757-.645-.757H.74z" fill="#545045" mask="url(#bzfmg49mfd)"/>
        </g>
        <path d="M62.827 34.253h-4.28c-.834 0-1.51-.661-1.51-1.478 0-.815.676-1.477 1.51-1.477h4.28c.834 0 1.51.662 1.51 1.477 0 .817-.676 1.478-1.51 1.478" fill="#FC0"/>
        <g transform="translate(4 8)">
            <mask id="t4glfuxr0f" fill="#fff">
                <use xlink:href="#z75gy0iebe"/>
            </mask>
            <path fill="#FC0" mask="url(#t4glfuxr0f)" d="M0 0h16.444l7.703 21.769h.094l7.703-21.77h16.444v33H37.803V8.32h-.095L28.825 33h-9.262L10.68 8.32h-.094V33H0z"/>
        </g>
    </g>
</svg>
